<svg xmlns="http://www.w3.org/2000/svg" viewBox="0 0 1600 1000">
<defs><linearGradient id="bg" x1="0" y1="0" x2="1" y2="1"><stop stop-color="#09242c"/><stop offset="1" stop-color="#1b6b72"/></linearGradient><linearGradient id="glass" x1="0" y1="0" x2="1" y2="1"><stop stop-color="#fff" stop-opacity=".22"/><stop offset="1" stop-color="#fff" stop-opacity=".03"/></linearGradient></defs>
<rect width="1600" height="1000" fill="url(#bg)"/><circle cx="1240" cy="260" r="150" fill="#f5d76e" opacity=".9"/><path d="M0 650l1600-180v530H0z" fill="#173a35"/><g stroke="#8fd6d3" stroke-width="6" fill="#0d3540"><path d="M260 650l180-310 430 0 130 310z"/><path d="M440 340l130 310M655 340l80 310M875 340l-5 310M330 520h600"/></g><g fill="#fff" opacity=".65"><circle cx="190" cy="150" r="5"/><circle cx="350" cy="220" r="4"/><circle cx="500" cy="120" r="6"/><circle cx="700" cy="190" r="4"/></g>
<rect x="70" y="700" width="1460" height="220" rx="34" fill="#07110d" opacity=".78"/>
<text x="120" y="785" font-family="Arial" font-size="58" font-weight="800" fill="#fff">Solar Energy</text>
<text x="120" y="845" font-family="Arial" font-size="28" fill="#d7ac1b">PV Panels • Commercial • Industrial</text>
</svg>